<svg width="35" height="35" viewBox="0 0 35 35" fill="none" xmlns="http://www.w3.org/2000/svg">
<path d="M29.1666 5.83334H5.83329C4.22913 5.83334 2.93121 7.14584 2.93121 8.75001L2.91663 26.25C2.91663 27.8542 4.22913 29.1667 5.83329 29.1667H29.1666C30.7708 29.1667 32.0833 27.8542 32.0833 26.25V8.75001C32.0833 7.14584 30.7708 5.83334 29.1666 5.83334ZM28.5833 12.0313L18.2729 18.4771C17.8062 18.7688 17.1937 18.7688 16.727 18.4771L6.41663 12.0313C6.2704 11.9492 6.14234 11.8383 6.04021 11.7053C5.93809 11.5722 5.86401 11.4199 5.82246 11.2574C5.78092 11.095 5.77278 10.9257 5.79852 10.76C5.82427 10.5943 5.88337 10.4356 5.97224 10.2934C6.06112 10.1512 6.17793 10.0285 6.3156 9.93271C6.45327 9.83696 6.60894 9.77013 6.77318 9.73628C6.93743 9.70243 7.10683 9.70225 7.27114 9.73577C7.43546 9.76928 7.59126 9.83579 7.72913 9.93126L17.5 16.0417L27.2708 9.93126C27.4087 9.83579 27.5645 9.76928 27.7288 9.73577C27.8931 9.70225 28.0625 9.70243 28.2267 9.73628C28.391 9.77013 28.5466 9.83696 28.6843 9.93271C28.822 10.0285 28.9388 10.1512 29.0277 10.2934C29.1166 10.4356 29.1757 10.5943 29.2014 10.76C29.2271 10.9257 29.219 11.095 29.1775 11.2574C29.1359 11.4199 29.0618 11.5722 28.9597 11.7053C28.8576 11.8383 28.7295 11.9492 28.5833 12.0313Z" fill="white"/>
</svg>
