<svg width="35" height="35" viewBox="0 0 35 35" fill="none" xmlns="http://www.w3.org/2000/svg">
<path d="M24.7917 13.125V10.2084C24.7917 6.12502 21.5834 2.91669 17.5 2.91669C13.4167 2.91669 10.2084 6.12502 10.2084 10.2084V13.125C7.72921 13.125 5.83337 15.0209 5.83337 17.5V27.7084C5.83337 30.1875 7.72921 32.0834 10.2084 32.0834H24.7917C27.2709 32.0834 29.1667 30.1875 29.1667 27.7084V17.5C29.1667 15.0209 27.2709 13.125 24.7917 13.125ZM13.125 10.2084C13.125 7.72919 15.0209 5.83335 17.5 5.83335C19.9792 5.83335 21.875 7.72919 21.875 10.2084V13.125H13.125V10.2084Z" fill="white"/>
</svg>
