<svg width="24" height="24" viewBox="0 0 24 24" fill="none" xmlns="http://www.w3.org/2000/svg">
<path d="M11.712 3.45C11.7991 3.33395 11.8506 3.19512 11.8604 3.05036C11.8701 2.9056 11.8377 2.76112 11.767 2.63442C11.6963 2.50773 11.5904 2.40426 11.462 2.33656C11.3337 2.26886 11.1885 2.23984 11.044 2.253C5.63 2.747 2.608 7.005 2.28 11.358C1.952 15.719 4.317 20.333 9.731 21.524C15.417 22.774 21.203 18.687 21.747 12.878C21.7605 12.7342 21.7323 12.5895 21.6656 12.4614C21.5989 12.3333 21.4966 12.2271 21.371 12.1557C21.2454 12.0843 21.1019 12.0507 20.9577 12.0589C20.8134 12.0671 20.6747 12.1168 20.558 12.202C17.721 14.271 14.478 13.518 12.422 11.478C10.368 9.439 9.622 6.239 11.712 3.45Z" fill="white"/>
</svg>
