<svg width="25" height="26" viewBox="0 0 25 26" fill="none" xmlns="http://www.w3.org/2000/svg">
<path d="M12.5 6.16281C8.86914 6.16281 5.92578 9.22391 5.92578 12.998C5.92578 16.7741 8.86914 19.8352 12.5 19.8352C16.1309 19.8352 19.0742 16.7741 19.0742 12.998C19.0742 9.22391 16.1309 6.16281 12.5 6.16281ZM11.0859 4.91766H13.916C14.0469 4.91766 14.168 4.85063 14.2441 4.73891C14.3184 4.62922 14.3359 4.485 14.291 4.35703L12.875 0.371721C12.8164 0.207189 12.668 0.0995331 12.5 0.0995331C12.332 0.0995331 12.1836 0.209221 12.125 0.371721L10.709 4.35906C10.6641 4.48703 10.6816 4.62922 10.7559 4.74094C10.832 4.85266 10.9551 4.91766 11.0859 4.91766ZM18.9961 8.3261C19.0703 8.40531 19.1738 8.44797 19.2773 8.44797C19.3008 8.44797 19.3242 8.44594 19.3477 8.44188C19.4766 8.4175 19.584 8.33016 19.6406 8.20625L21.3516 4.34485C21.4219 4.18641 21.3887 4.00156 21.2715 3.87766C21.1523 3.75375 20.9727 3.72125 20.8203 3.79235L17.1094 5.57375C16.9902 5.63063 16.9062 5.74438 16.8828 5.87844C16.8594 6.0125 16.9023 6.1486 16.9922 6.2461L18.9961 8.3261ZM24.6445 12.61L20.8086 11.1394C20.6855 11.0927 20.5488 11.1109 20.4414 11.1881C20.334 11.2653 20.2715 11.3913 20.2715 11.5273L20.2734 14.4706C20.2734 14.6067 20.3379 14.7347 20.4453 14.8119C20.5137 14.8586 20.5937 14.885 20.6738 14.885C20.7207 14.885 20.7676 14.8769 20.8125 14.8586L24.6484 13.388C24.8047 13.3291 24.9102 13.1727 24.9102 12.9959C24.9062 12.8253 24.8027 12.6709 24.6445 12.61ZM19.6406 17.7938C19.6136 17.7328 19.5729 17.6796 19.5219 17.6386C19.4709 17.5976 19.4111 17.57 19.3477 17.5581C19.2187 17.5358 19.0859 17.5784 18.9961 17.6739L16.9941 19.7559C16.9023 19.8514 16.8594 19.9895 16.8828 20.1236C16.9062 20.2556 16.9902 20.3714 17.1094 20.4283L20.8223 22.2077C20.875 22.2341 20.9316 22.2442 20.9902 22.2442C21.0937 22.2442 21.1953 22.2016 21.2715 22.1223C21.3906 21.9984 21.4219 21.8136 21.3516 21.6552L19.6406 17.7938ZM13.9141 21.0803L11.084 21.0823C10.9531 21.0823 10.832 21.1494 10.7578 21.2611C10.6836 21.3728 10.666 21.515 10.709 21.6409L12.125 25.6303C12.1836 25.7928 12.332 25.9025 12.5 25.9025C12.668 25.9025 12.8164 25.7928 12.875 25.6303L14.291 21.6409C14.3359 21.513 14.3184 21.3708 14.2441 21.2591C14.168 21.1473 14.0469 21.0803 13.9141 21.0803ZM6.0039 17.6739C5.91211 17.5784 5.78125 17.5358 5.65234 17.5581C5.52343 17.5825 5.41406 17.6698 5.35937 17.7938L3.64843 21.6552C3.57812 21.8136 3.61132 22.0005 3.73046 22.1223C3.78813 22.1824 3.86213 22.2226 3.94248 22.2375C4.02282 22.2524 4.10562 22.2413 4.17968 22.2056L7.89257 20.4242C7.95114 20.3962 8.00232 20.3538 8.04176 20.3008C8.08121 20.2477 8.10775 20.1855 8.11914 20.1195C8.14257 19.9855 8.0996 19.8494 8.00781 19.7539L6.0039 17.6739ZM4.33007 14.887C4.41015 14.887 4.49023 14.8606 4.55859 14.8119C4.66601 14.7347 4.73046 14.6067 4.73046 14.4706L4.72851 11.5273C4.72852 11.4605 4.713 11.3946 4.68327 11.3352C4.65354 11.2759 4.61048 11.225 4.55775 11.1867C4.50501 11.1484 4.44417 11.1239 4.38039 11.1153C4.31661 11.1067 4.25177 11.1143 4.1914 11.1373L0.355464 12.61C0.278659 12.6393 0.212354 12.6924 0.165512 12.7621C0.11867 12.8319 0.0935516 12.9149 0.0935516 13C0.0935516 13.0851 0.11867 13.1681 0.165512 13.2379C0.212354 13.3076 0.278659 13.3607 0.355464 13.39L4.19336 14.8606C4.23828 14.8789 4.2832 14.887 4.33007 14.887ZM5.36132 8.20625C5.38837 8.26712 5.42915 8.32029 5.4802 8.36125C5.53124 8.40221 5.59104 8.42974 5.65452 8.44151C5.71799 8.45327 5.78325 8.44892 5.84476 8.42883C5.90627 8.40874 5.96221 8.37349 6.00781 8.3261L8.00781 6.24406C8.0996 6.14656 8.14062 6.01047 8.11718 5.87641C8.09375 5.74438 8.00976 5.63063 7.89062 5.57375L4.17578 3.79438C4.02343 3.72125 3.8457 3.75578 3.72656 3.87969C3.60742 4.0036 3.57617 4.18844 3.64648 4.34688L5.36132 8.20625Z" fill="#FFBD00"/>
</svg>
